# xmcd CD database file
# 
# Track frame offsets:
# 	150
# 	16512
# 	36062
# 	52586
# 	67006
# 	81687
# 	94444
# 	110915
# 	129916
# 	145531
# 
# Disc length: 2171 seconds
# 
# Submitted via: Nero 5.5.6.4
# 
# Revision: 0
# Processed by: cddbd v1.4PL0 Copyright (c) Steve Scherf et al.
#
DISCID=8008790a
DTITLE=Kenny Rogers - The Best of Kenny Rogers Disc 2
DYEAR=1900
DGENRE=
TTITLE0=The Best of Kenny Rogers Disc 2
TTITLE1=The Best of Kenny Rogers Disc 2
TTITLE2=The Best of Kenny Rogers Disc 2
TTITLE3=The Best of Kenny Rogers Disc 2
TTITLE4=The Best of Kenny Rogers Disc 2
TTITLE5=The Best of Kenny Rogers Disc 2
TTITLE6=The Best of Kenny Rogers Disc 2
TTITLE7=The Best of Kenny Rogers Disc 2
TTITLE8=The Best of Kenny Rogers Disc 2
TTITLE9=The Best of Kenny Rogers Disc 2
EXTD=1
EXTT0=
EXTT1=
EXTT2=
EXTT3=
EXTT4=
EXTT5=
EXTT6=
EXTT7=
EXTT8=
EXTT9=
PLAYORDER=
